<?xml version="1.0" encoding="UTF-8"?>
<svg version="1.1" xmlns="http://www.w3.org/2000/svg" width="553" height="399">
<path d="M0 0 C182.49 0 364.98 0 553 0 C553 131.67 553 263.34 553 399 C370.51 399 188.02 399 0 399 C0 267.33 0 135.66 0 0 Z " fill="#FCD008" transform="translate(0,0)"/>
<path d="M0 0 C0.78704315 0.007966 1.5740863 0.01593201 2.38497925 0.0241394 C20.85619588 0.38467609 35.95386906 4.88011598 49.125 18.1875 C57.10316655 26.88750067 57.64946374 37.67940233 57.625 49 C57.65335937 50.18142578 57.68171875 51.36285156 57.7109375 52.58007812 C57.73833595 65.0806229 53.94299768 76.15042163 45.125 85.1875 C40.54108868 89.30126657 35.91320298 92.01692388 30.125 94.1875 C29.53005737 94.44296097 28.93511475 94.69842194 28.32214355 94.96162415 C23.37532896 97.01500615 19.23181698 97.59838141 13.90625 97.48046875 C12.9157666 97.47593689 12.9157666 97.47593689 11.90527344 97.47131348 C9.47835275 97.45581715 7.05165782 97.41393587 4.625 97.375 C-0.82 97.313125 -6.265 97.25125 -11.875 97.1875 C-11.875 112.3675 -11.875 127.5475 -11.875 143.1875 C-24.745 143.1875 -37.615 143.1875 -50.875 143.1875 C-51.00698957 135.57688711 -51.13845252 127.96628707 -51.26579285 120.35559845 C-51.3252686 116.80825177 -51.3854802 113.2609218 -51.44775391 109.71362305 C-51.57914702 102.20001779 -51.6976017 94.68649925 -51.79066467 87.17231274 C-51.84940733 82.58910762 -51.94413992 78.00744944 -52.046875 73.42504883 C-52.08432018 71.01254767 -52.12082629 68.60003169 -52.15625 66.1875 C-52.18787231 65.09874069 -52.21949463 64.00998138 -52.2520752 62.88822937 C-52.34540401 53.60791375 -49.79627556 47.33796892 -43.875 40.1875 C-43.215 40.1875 -42.555 40.1875 -41.875 40.1875 C-41.64683594 39.1975 -41.41867187 38.2075 -41.18359375 37.1875 C-39.6435679 31.82901706 -36.55710358 27.5212473 -33.40600586 22.98071289 C-30.86974297 19.31484393 -28.65487184 15.88316672 -26.96875 11.74609375 C-21.42792815 -0.31465661 -12.02539701 -0.12729502 0 0 Z " fill="#FEFDFC" transform="translate(351.875,84.8125)"/>
<path d="M0 0 C2.81799071 2.63233485 4.82146694 5.83479665 7 9 C8.65648951 11.17564777 10.32164439 13.34148492 12 15.5 C12.8664966 16.62583195 13.73239205 17.75212686 14.59765625 18.87890625 C18.60231776 24.08171039 22.62852804 29.26663841 26.69921875 34.41796875 C27.42250366 35.33461304 27.42250366 35.33461304 28.16040039 36.26977539 C29.10737123 37.46931388 30.05568568 38.66779343 31.00561523 39.86499023 C33.33087123 42.81110182 35.56643192 45.78632637 37.7109375 48.8671875 C39.64147265 52.01171328 39.64147265 52.01171328 42 53 C42 73.46 42 93.92 42 115 C34.6940709 108.73777506 34.6940709 108.73777506 33 104 C31.11384519 101.18863342 29.0233689 98.54014551 26.9375 95.875 C26.3511377 95.11727295 25.76477539 94.3595459 25.16064453 93.57885742 C21.27251315 88.57351428 17.30587245 83.63880943 13.2578125 78.76171875 C11.53718856 76.65708012 9.84903136 74.53930694 8.1796875 72.39453125 C7.69322754 71.76957764 7.20676758 71.14462402 6.70556641 70.50073242 C5.76476356 69.28835599 4.82673859 68.07381654 3.89208984 66.85668945 C1.14184464 63.3138708 -1.76080341 60.11800216 -5 57 C-7 55 -7 55 -7.8359375 52.73046875 C-9.26759074 49.3723291 -11.24951582 47.07635699 -13.625 44.3125 C-18 39.21293375 -18 39.21293375 -18 37 C-18.66 37 -19.32 37 -20 37 C-20.00808685 37.97274872 -20.01617371 38.94549744 -20.02450562 39.94772339 C-20.10188279 49.10066004 -20.18960041 58.2534465 -20.28752708 67.40618706 C-20.33754143 72.11206979 -20.38387083 76.81792951 -20.421875 81.52392578 C-20.45866313 86.06275093 -20.50500504 90.60138588 -20.55806351 95.14004898 C-20.57664199 96.87441813 -20.59173709 98.60882809 -20.60334396 100.3432579 C-20.62014765 102.76663577 -20.64916748 105.18957473 -20.68115234 107.61279297 C-20.68331253 108.33496002 -20.68547272 109.05712708 -20.68769836 109.80117798 C-20.77189568 114.77189568 -20.77189568 114.77189568 -23 117 C-25.86888581 117.17532289 -28.63992645 117.23137614 -31.5078125 117.1953125 C-32.76874222 117.19106766 -32.76874222 117.19106766 -34.05514526 117.18673706 C-36.74524046 117.1755243 -39.4350051 117.15041803 -42.125 117.125 C-43.94660978 117.1149716 -45.76822477 117.10584551 -47.58984375 117.09765625 C-52.06002358 117.07558142 -56.52995571 117.04104434 -61 117 C-62.27378259 113.17865222 -62.19652986 109.55359954 -62.24047852 105.56884766 C-62.25347488 104.70837326 -62.26647125 103.84789886 -62.27986145 102.96134949 C-62.40635319 93.98258424 -62.4632678 85.00289287 -62.51489258 76.0234375 C-62.54168275 71.76086897 -62.59047875 67.49941183 -62.65844727 63.23730469 C-62.7402892 58.09197733 -62.78305836 52.94771214 -62.79795647 47.80176926 C-62.81021958 45.8408407 -62.83628788 43.87994812 -62.87640572 41.91939163 C-62.92976698 39.17497303 -62.93288676 36.43476736 -62.92407227 33.68994141 C-62.95126343 32.88041519 -62.97845459 32.07088898 -63.00646973 31.23683167 C-62.96782901 28.90332954 -62.84646605 27.17794319 -62 25 C-59.58257614 22.7660395 -56.96419885 21.39066863 -54 20 C-53.30608438 19.64254511 -52.61216875 19.28509022 -51.89722538 18.91680336 C-50.0348421 17.95819 -48.15051873 17.06780162 -46.25 16.1875 C-45.60417969 15.87619141 -44.95835937 15.56488281 -44.29296875 15.24414062 C-40.87949219 13.64954942 -38.8416303 13 -35 13 C-35 12.34 -35 11.68 -35 11 C-34.20078125 10.69707031 -33.4015625 10.39414063 -32.578125 10.08203125 C-25.82206779 7.50489675 -19.11921551 4.83602158 -12.4609375 2.015625 C-8.01875787 0.18234452 -4.81066859 -0.8017781 0 0 Z " fill="#1F477F" transform="translate(259,113)"/>
<path d="M0 0 C3.3 0 6.6 0 10 0 C10 131.67 10 263.34 10 399 C6.7 399 3.4 399 0 399 C0 267.33 0 135.66 0 0 Z " fill="#FFFFFF" transform="translate(0,0)"/>
<path d="M0 0 C0 0.66 0 1.32 0 2 C0.88171875 2.40992188 0.88171875 2.40992188 1.78125 2.828125 C7.94587877 6.0840909 13.39378454 11.31902923 15.68359375 17.9921875 C18.07533638 27.26225203 18.13285168 37.23835445 14 46 C9.88038902 52.34642773 5.29062852 56.88689673 -1 61 C-1.7425 61.7425 -2.485 62.485 -3.25 63.25 C-6.91805556 66.91805556 -11.76552657 66.23331427 -16.625 66.25 C-27.75618963 66.23458589 -34.36255269 64.08197481 -43 57 C-44.051875 56.319375 -45.10375 55.63875 -46.1875 54.9375 C-51.70110151 50.34283207 -54.0138855 40.88136425 -55 34 C-55.27222315 24.41301063 -53.86073355 16.72495857 -48 9 C-36.36970909 -3.3048069 -15.49279778 -10.32853185 0 0 Z " fill="#23497C" transform="translate(459,257)"/>
<path d="M0 0 C7.6717923 5.97056152 11.79283043 11.48053868 13.84765625 21.0859375 C15.16302345 31.63441623 13.31047365 40.2929314 7.0625 48.875 C2.65765602 54.332164 -2.82230086 59.44014888 -9.75 61.3125 C-12.5625 61.4375 -12.5625 61.4375 -14.75 61.3125 C-14.75 61.9725 -14.75 62.6325 -14.75 63.3125 C-16.97909871 63.33964735 -19.20829367 63.35896254 -21.4375 63.375 C-22.67886719 63.38660156 -23.92023438 63.39820313 -25.19921875 63.41015625 C-28.21235454 63.32728673 -30.83275339 63.02089449 -33.75 62.3125 C-33.75 61.6525 -33.75 60.9925 -33.75 60.3125 C-34.31847656 60.15394531 -34.88695312 59.99539063 -35.47265625 59.83203125 C-44.28052419 57.1705553 -49.65924639 53.53595921 -54.52734375 45.6171875 C-58.89524959 37.38375476 -58.91683746 27.31897202 -57.16796875 18.31640625 C-54.46720866 9.62217858 -48.70217229 3.66325477 -41.875 -2.125 C-28.03708105 -9.04395948 -12.79360702 -8.78805125 0 0 Z " fill="#21487D" transform="translate(382.75,259.6875)"/>
<path d="M0 0 C-0.28790365 4.31077354 -1.84680787 6.19157447 -5.05126953 8.99560547 C-5.59122559 9.45080566 -6.13118164 9.90600586 -6.6875 10.375 C-7.78509366 11.34086944 -8.88017029 12.30960703 -9.97265625 13.28125 C-10.49746582 13.74660156 -11.02227539 14.21195313 -11.56298828 14.69140625 C-15.01372076 17.83376542 -18.24724814 21.11812035 -20 25.5 C-21.85046071 30.12615178 -25.55314961 33.69118834 -29.2109375 37 C-33.46911969 41.23820573 -36.53487151 46.50135788 -39.8125 51.5 C-40.52156494 52.57411133 -41.23062988 53.64822266 -41.96118164 54.75488281 C-51.15679829 67.10282696 -51.15679829 67.10282696 -57 81 C-57.66 81 -58.32 81 -59 81 C-59.33 82.98 -59.66 84.96 -60 87 C-61.32 87 -62.64 87 -64 87 C-64 75.12 -64 63.24 -64 51 C-67.63 51.99 -71.26 52.98 -75 54 C-77.39541363 54.62660666 -79.7911988 55.25179624 -82.1875 55.875 C-94.74615234 59.21881971 -106.81548711 63.19035754 -118.84057617 68.12573242 C-123.35161152 69.97133485 -127.8315288 71.64484906 -132.5 73.0625 C-137.8530276 74.75888199 -142.324676 77.39374828 -147.09375 80.32421875 C-150.62139843 82.35830635 -154.21240178 83.80734756 -158.0390625 85.17578125 C-160.18389432 85.93197813 -160.18389432 85.93197813 -162 88 C-165.28452252 89.50910494 -168.44260787 90.39016135 -172 91 C-172.33 91.99 -172.66 92.98 -173 94 C-175.58203125 95.3515625 -175.58203125 95.3515625 -178.8125 96.625 C-179.87082031 97.05039063 -180.92914063 97.47578125 -182.01953125 97.9140625 C-184.35066819 98.76341515 -186.58132467 99.4729279 -189 100 C-188.67916895 97.11252055 -188.1283267 96.11661628 -185.9453125 94.1328125 C-185.01460937 93.47023438 -184.08390625 92.80765625 -183.125 92.125 C-182.03493354 91.33885038 -180.94510675 90.55236837 -179.85546875 89.765625 C-179.24751465 89.33185547 -178.63956055 88.89808594 -178.01318359 88.45117188 C-175.77824648 86.84015245 -173.56986508 85.19650532 -171.36328125 83.546875 C-156.53265794 72.47395587 -156.53265794 72.47395587 -149.0625 67.91015625 C-146.44238882 66.27592874 -143.87664608 64.59078779 -141.3125 62.87109375 C-130.03943252 55.33835481 -119.61126438 49.81721283 -106.6875 45.625 C-99.99064735 43.45007149 -93.76965684 40.71731176 -87.4375 37.6484375 C-85.18371444 36.56764488 -82.90457166 35.53790552 -80.6015625 34.56640625 C-76.41775669 32.74676837 -72.40607892 30.69495306 -68.375 28.5625 C-67.15840698 27.92139282 -67.15840698 27.92139282 -65.91723633 27.26733398 C-58.53151185 23.34324993 -51.26743505 19.21525966 -44.03076172 15.02368164 C-33.22468439 8.77232715 -22.52307701 4.80355859 -10.4375 1.75 C-9.74672363 1.57476807 -9.05594727 1.39953613 -8.34423828 1.21899414 C-5.48234546 0.51609173 -2.95921601 0 0 0 Z " fill="#23497C" transform="translate(362,46)"/>
<path d="M0 0 C18 0 18 0 24.125 5.8125 C25.64013672 7.75024414 25.64013672 7.75024414 26.6796875 9.41015625 C28.7516779 12.62080033 30.96391189 15.68594654 33.25 18.75 C33.87390625 19.63042969 34.4978125 20.51085937 35.140625 21.41796875 C37.56197145 24.78038473 40.14220236 28.00365604 42.75 31.22265625 C44 33 44 33 44 35 C44.66 35 45.32 35 46 35 C46 23.78 46 12.56 46 1 C51.94 1 57.88 1 64 1 C64 22.12 64 43.24 64 65 C46 65 46 65 41.42578125 61.37890625 C39.78320312 59.04101562 39.78320312 59.04101562 38.3125 56.5625 C37.78462891 55.77939453 37.25675781 54.99628906 36.71289062 54.18945312 C35.64769909 52.60922392 34.60336181 51.01473297 33.58056641 49.40673828 C29.53642962 43.24870609 24.72136223 37.64294794 20 32 C19.97494385 32.96413818 19.9498877 33.92827637 19.92407227 34.92163086 C19.83014694 38.48687842 19.72989061 42.05192433 19.62768555 45.61694336 C19.58428015 47.16214289 19.54260929 48.70739214 19.50268555 50.25268555 C19.44511801 52.46939096 19.38138576 54.6858448 19.31640625 56.90234375 C19.29133751 57.94454323 19.29133751 57.94454323 19.26576233 59.00779724 C19.11387171 63.88612829 19.11387171 63.88612829 18 65 C12.06 65 6.12 65 0 65 C0 43.55 0 22.1 0 0 Z " fill="#1E467F" transform="translate(62,255)"/>
<path d="M0 0 C5.424375 -0.103125 10.84875 -0.20625 16.4375 -0.3125 C18.97715454 -0.38078003 18.97715454 -0.38078003 21.56811523 -0.45043945 C30.62443711 -0.59240125 37.61243036 0.03579472 44.52856445 6.40844727 C48.63967811 10.88631848 51.14701774 16.03760415 51.25 22.125 C51.05108712 25.20814963 50.74714827 28.01140692 50 31 C49.34 31 48.68 31 48 31 C47.76216797 31.92232422 47.76216797 31.92232422 47.51953125 32.86328125 C45.62341631 39.43159101 45.62341631 39.43159101 42.875 41.9375 C34.82978714 44.91073084 27.56161757 45.19681879 19 45 C19 51.93 19 58.86 19 66 C12.73 66 6.46 66 0 66 C0 44.22 0 22.44 0 0 Z " fill="#244A7B" transform="translate(269,255)"/>
<path d="M0 0 C6.084375 -0.020625 12.16875 -0.04125 18.4375 -0.0625 C20.36005615 -0.071604 22.2826123 -0.08070801 24.26342773 -0.09008789 C25.77848236 -0.09300707 27.29353777 -0.09555562 28.80859375 -0.09765625 C29.60237427 -0.10277222 30.39615479 -0.10788818 31.21398926 -0.11315918 C33.14302829 -0.11346956 35.07196912 -0.06235893 37 0 C38.75559942 1.75559942 38.13221919 4.03582442 38.13671875 6.37109375 C38.13285156 7.07363281 38.12898438 7.77617187 38.125 8.5 C38.13080078 9.55380859 38.13080078 9.55380859 38.13671875 10.62890625 C38.12661378 15.87338622 38.12661378 15.87338622 37 17 C35.58429877 17.08651611 34.164405 17.10704904 32.74609375 17.09765625 C31.89208984 17.09443359 31.03808594 17.09121094 30.15820312 17.08789062 C28.81145508 17.07532227 28.81145508 17.07532227 27.4375 17.0625 C26.53580078 17.05798828 25.63410156 17.05347656 24.70507812 17.04882812 C22.46998686 17.03700225 20.23502563 17.0205222 18 17 C18 19.31 18 21.62 18 24 C24.27 24 30.54 24 37 24 C37.020625 26.619375 37.04125 29.23875 37.0625 31.9375 C37.071604 32.7637085 37.08070801 33.58991699 37.09008789 34.44116211 C37.09723945 36.29433759 37.0502852 38.14749308 37 40 C36 41 36 41 32.18359375 41.09765625 C30.60153318 41.09098089 29.01948841 41.07901875 27.4375 41.0625 C26.63119141 41.05798828 25.82488281 41.05347656 24.99414062 41.04882812 C22.99606244 41.03700518 20.99802217 41.01906914 19 41 C19 43.31 19 45.62 19 48 C20.28777344 47.98839844 21.57554687 47.97679687 22.90234375 47.96484375 C24.58072772 47.9554673 26.25911326 47.94636695 27.9375 47.9375 C29.21270508 47.92493164 29.21270508 47.92493164 30.51367188 47.91210938 C31.32255859 47.90888672 32.13144531 47.90566406 32.96484375 47.90234375 C33.7137085 47.89710693 34.46257324 47.89187012 35.23413086 47.88647461 C37 48 37 48 38 49 C38 54.28 38 59.56 38 65 C25.46 65 12.92 65 0 65 C0 43.55 0 22.1 0 0 Z " fill="#264B7A" transform="translate(140,255)"/>
<path d="M0 0 C-9.94550388 7.94234585 -20.31608774 15.08893904 -31 22 C-31.68497559 22.44375977 -32.36995117 22.88751953 -33.07568359 23.34472656 C-49.35170519 33.83486704 -66.21211269 42.83392714 -83.77832031 50.96923828 C-85.59400821 51.81163765 -87.40341601 52.66756163 -89.2109375 53.52734375 C-100.06480878 58.62833731 -111.27114155 62.65231462 -122.8125 65.875 C-123.58343994 66.09027344 -124.35437988 66.30554688 -125.14868164 66.52734375 C-128.1804914 67.34640362 -130.84524904 68 -134 68 C-132.40177118 64.11465064 -129.739448 61.41910136 -126.875 58.4375 C-121.7281767 52.95243524 -117.31500283 47.16428975 -113 41 C-111.70920768 39.27018055 -110.41752439 37.54102563 -109.125 35.8125 C-102.44528516 26.63779286 -96.57764691 16.87601701 -91 7 C-90.01 7 -89.02 7 -88 7 C-88 15.25 -88 23.5 -88 32 C-81.15633722 30.55314849 -81.15633722 30.55314849 -74.58984375 28.58984375 C-73.84718262 28.33315918 -73.10452148 28.07647461 -72.33935547 27.81201172 C-71.56736816 27.54404785 -70.79538086 27.27608398 -70 27 C-68.29391201 26.43594101 -66.58684431 25.87483831 -64.87890625 25.31640625 C-63.10676283 24.7317951 -61.33462748 24.14715947 -59.5625 23.5625 C-58.68529297 23.27568359 -57.80808594 22.98886719 -56.90429688 22.69335938 C-49.71900854 20.3159132 -42.59730454 17.80528937 -35.82421875 14.40625 C-31.43418907 12.2203431 -26.79124946 10.82520749 -22.14453125 9.28125 C-19.13992214 8.05701175 -18.1251097 7.27444173 -16 5 C-14.05736225 3.85245027 -12.07305004 2.77391423 -10.0625 1.75 C-9.02222656 1.20859375 -7.98195313 0.6671875 -6.91015625 0.109375 C-3.93988906 -1.02291478 -2.87689064 -1.19234985 0 0 Z " fill="#FDFBF4" transform="translate(359,29)"/>
<path d="M0 0 C0.79719955 0.00222061 1.59439911 0.00444122 2.41575623 0.00672913 C3.31661453 0.00680466 4.21747284 0.00688019 5.14562988 0.00695801 C6.12478867 0.01211929 7.10394745 0.01728058 8.11277771 0.02259827 C9.11018478 0.02401321 10.10759186 0.02542816 11.13522339 0.02688599 C14.3348027 0.03250337 17.53431315 0.04505881 20.73387146 0.05775452 C22.89728191 0.06276728 25.06069345 0.06733057 27.22410583 0.07142639 C32.53988471 0.08247845 37.85562317 0.09923348 43.17137146 0.12025452 C43.19821825 2.76615466 43.21813503 5.41178547 43.23387146 8.05775452 C43.24225037 8.81250061 43.25062927 9.5672467 43.25926208 10.34486389 C43.26789587 12.27019765 43.22361479 14.19561033 43.17137146 16.12025452 C42.67637146 16.61525452 42.67637146 16.61525452 42.17137146 17.12025452 C38.21137146 17.12025452 34.25137146 17.12025452 30.17137146 17.12025452 C30.17137146 32.96025452 30.17137146 48.80025452 30.17137146 65.12025452 C23.57137146 65.12025452 16.97137146 65.12025452 10.17137146 65.12025452 C10.17137146 49.61025452 10.17137146 34.10025452 10.17137146 18.12025452 C5.88137146 18.12025452 1.59137146 18.12025452 -2.82862854 18.12025452 C-2.85547166 15.3076917 -2.87539042 12.49538211 -2.89112854 9.68275452 C-2.89950745 8.88031311 -2.90788635 8.0778717 -2.91651917 7.25111389 C-2.92514284 5.20730231 -2.88091004 3.1634155 -2.82862854 1.12025452 C-1.82862854 0.12025452 -1.82862854 0.12025452 0 0 Z " fill="#1F477E" transform="translate(184.82862854003906,254.87974548339844)"/>
<path d="M0 0 C0.79792969 0.00386719 1.59585937 0.00773438 2.41796875 0.01171875 C3.21589844 0.00785156 4.01382812 0.00398437 4.8359375 0 C10.79136108 0.01011108 10.79136108 0.01011108 11.91796875 1.13671875 C12.01108764 2.64090614 12.03542903 4.14943231 12.03149414 5.65649414 C12.03141861 6.6174147 12.03134308 7.57833527 12.03126526 8.56837463 C12.02610397 9.61315475 12.02094269 10.65793488 12.015625 11.734375 C12.01421005 12.79837021 12.0127951 13.86236542 12.01133728 14.95860291 C12.00571939 18.37216958 11.99316386 21.78567175 11.98046875 25.19921875 C11.97545606 27.50716051 11.97089275 29.8151033 11.96679688 32.12304688 C11.95574414 37.79429586 11.93846752 43.46549635 11.91796875 49.13671875 C18.51796875 49.13671875 25.11796875 49.13671875 31.91796875 49.13671875 C31.91796875 54.41671875 31.91796875 59.69671875 31.91796875 65.13671875 C26.52449887 65.16136724 21.1310615 65.17955406 15.73754883 65.19165039 C13.90128 65.19669106 12.06501521 65.20352352 10.22875977 65.2121582 C7.59520474 65.22423547 4.96170259 65.22994956 2.328125 65.234375 C1.08906151 65.24211693 1.08906151 65.24211693 -0.17503357 65.25001526 C-2.14439493 65.2502108 -4.11364739 65.19876027 -6.08203125 65.13671875 C-7.8729917 63.3457583 -7.20969916 60.6733909 -7.21142578 58.25585938 C-7.21457794 56.99785522 -7.2177301 55.73985107 -7.22097778 54.44372559 C-7.219188 53.06013962 -7.21713705 51.67655397 -7.21484375 50.29296875 C-7.21551684 48.88431786 -7.2164869 47.47566709 -7.21774292 46.0670166 C-7.21921967 43.11123552 -7.21706608 40.15548461 -7.21240234 37.19970703 C-7.20670506 33.40297291 -7.20998418 29.60630947 -7.21597481 25.80957794 C-7.21958104 22.89975447 -7.21844155 19.98994787 -7.21584702 17.0801239 C-7.21517792 15.67982475 -7.21600557 14.27952408 -7.21832657 12.87922668 C-7.22085408 10.92534411 -7.21632158 8.9714562 -7.21142578 7.01757812 C-7.21063019 5.90362671 -7.20983459 4.78967529 -7.20901489 3.64196777 C-6.96399989 -1.1919114 -4.19814633 0.00712758 0 0 Z " fill="#244A7B" transform="translate(493.08203125,254.86328125)"/>
<path d="M0 0 C3.35409194 -0.05859857 6.70805017 -0.09379582 10.0625 -0.125 C11.00544922 -0.14175781 11.94839844 -0.15851563 12.91992188 -0.17578125 C19.71345363 -0.22312293 25.12511677 0.10380042 30.9375 3.9375 C33.93298073 8.38533502 33.80028608 12.76865626 33 18 C32.34 18.66 31.68 19.32 31 20 C31.08189527 23.28697829 31.24807212 26.52686288 31.60546875 29.79492188 C31.77051295 33.06829847 31.4625231 35.22186099 29.77246094 38.06518555 C26.10461125 42.07048959 22.74633773 43.36398291 17.31991577 43.65272522 C13.7064471 43.70581121 10.10999443 43.58448287 6.5 43.4375 C4.99486439 43.40233479 3.48964952 43.37040494 1.984375 43.34179688 C-1.67874806 43.26519428 -5.33886095 43.14470277 -9 43 C-8.49579446 36.81454931 -7.69813864 30.89344862 -6.1875 24.875 C-5.92791504 23.8068103 -5.92791504 23.8068103 -5.66308594 22.71704102 C-5.11621551 20.47610397 -4.55911583 18.23791056 -4 16 C-3.61580115 14.44923963 -3.23168617 12.89845847 -2.84765625 11.34765625 C-1.90741587 7.56280778 -0.95663321 3.78073658 0 0 Z " fill="#284C79" transform="translate(185,330)"/>
<path d="M0 0 C4.20809884 -0.11656783 8.41577996 -0.18737611 12.625 -0.25 C14.40970703 -0.30027344 14.40970703 -0.30027344 16.23046875 -0.3515625 C27.18880301 -0.47400199 27.18880301 -0.47400199 32 4 C34.60164529 7.02126549 35.23831517 9.17001882 35 13.0625 C34.8125 15.03515625 34.8125 15.03515625 34 17 C33.15953125 17.5878125 32.3190625 18.175625 31.453125 18.78125 C28.63509836 20.84742109 28.63509836 20.84742109 28.546875 24.49609375 C28.64742188 26.44708984 28.64742188 26.44708984 28.75 28.4375 C28.95046579 33.02543298 28.91057328 36.4471336 28 41 C23.05 41 18.1 41 13 41 C13 36.71 13 32.42 13 28 C11.68 27.67 10.36 27.34 9 27 C8.90912109 28.24716797 8.90912109 28.24716797 8.81640625 29.51953125 C8.69072266 31.14955078 8.69072266 31.14955078 8.5625 32.8125 C8.48128906 33.89144531 8.40007812 34.97039062 8.31640625 36.08203125 C8 39 8 39 7 42 C2.05 42 -2.9 42 -8 42 C-7.52734367 32.66503755 -5.78271127 24.11032933 -3.51855469 15.09082031 C-2.72267979 11.88184073 -1.98727562 8.66044772 -1.25 5.4375 C-0.83348108 3.62496604 -0.41684095 1.81245993 0 0 Z " fill="#254A7A" transform="translate(273,331)"/>
<path d="M0 0 C0.93972656 -0.00128906 1.87945312 -0.00257813 2.84765625 -0.00390625 C3.83636719 -0.00003906 4.82507813 0.00382812 5.84375 0.0078125 C7.32681641 0.00201172 7.32681641 0.00201172 8.83984375 -0.00390625 C10.24943359 -0.00197266 10.24943359 -0.00197266 11.6875 0 C12.55568359 0.00112793 13.42386719 0.00225586 14.31835938 0.00341797 C16.34375 0.1328125 16.34375 0.1328125 17.34375 1.1328125 C17.43643999 2.48376232 17.46122326 3.83948341 17.45727539 5.19360352 C17.45719986 6.05442032 17.45712433 6.91523712 17.45704651 7.80213928 C17.45188522 8.73755051 17.44672394 9.67296173 17.44140625 10.63671875 C17.4399913 11.58973373 17.43857635 12.54274872 17.43711853 13.52464294 C17.43150152 16.58156415 17.41894616 19.63841327 17.40625 22.6953125 C17.40123719 24.76236874 17.39667391 26.82942612 17.39257812 28.89648438 C17.38152656 33.97528838 17.36425055 39.0540382 17.34375 44.1328125 C12.06375 44.1328125 6.78375 44.1328125 1.34375 44.1328125 C1.34375 42.1528125 1.34375 40.1728125 1.34375 38.1328125 C-0.63625 38.1328125 -2.61625 38.1328125 -4.65625 38.1328125 C-4.98625 39.7828125 -5.31625 41.4328125 -5.65625 43.1328125 C-11.26625 43.1328125 -16.87625 43.1328125 -22.65625 43.1328125 C-21.31083855 35.06034381 -18.31605095 28.28358953 -14.5859375 21.0546875 C-13.66459157 19.15005642 -12.92801444 17.25012834 -12.21875 15.2578125 C-6.73151117 0.00874547 -6.73151117 0.00874547 0 0 Z " fill="#2B4E77" transform="translate(395.65625,329.8671875)"/>
<path d="M0 0 C10.23 0 20.46 0 31 0 C31 7 31 7 29 12 C23.72 12 18.44 12 13 12 C13 12.99 13 13.98 13 15 C17.95 15 22.9 15 28 15 C27.34 18.96 26.68 22.92 26 27 C20.72 27 15.44 27 10 27 C10 27.99 10 28.98 10 30 C15.61 30 21.22 30 27 30 C27.25 38.5 27.25 38.5 25 43 C14.11 43 3.22 43 -8 43 C-9.04896476 38.80414097 -8.83550412 37.287336 -7.875 33.1875 C-7.5965625 31.96933594 -7.318125 30.75117188 -7.03125 29.49609375 C-6.87011719 28.80112793 -6.70898438 28.10616211 -6.54296875 27.39013672 C-5.9113883 24.60993322 -5.31363095 21.82344072 -4.71875 19.03515625 C-4.49719238 17.99915283 -4.27563477 16.96314941 -4.04736328 15.89575195 C-3.60208622 13.81245679 -3.15773758 11.72896296 -2.71435547 9.64526367 C-2.50697754 8.68467041 -2.29959961 7.72407715 -2.0859375 6.734375 C-1.8082251 5.43838379 -1.8082251 5.43838379 -1.52490234 4.11621094 C-1 2 -1 2 0 0 Z " fill="#21487C" transform="translate(231,331)"/>
<path d="M0 0 C10.56 0 21.12 0 32 0 C31 9 31 9 30 13 C24.39 13 18.78 13 13 13 C13 13.99 13 14.98 13 16 C17.95 16 22.9 16 28 16 C27 23 27 23 25 28 C19.72 28 14.44 28 9 28 C9 29.32 9 30.64 9 32 C14.61 32 20.22 32 26 32 C25.125 41.875 25.125 41.875 24 43 C21.6243148 43.0883967 19.27791326 43.11530305 16.90234375 43.09765625 C15.83905602 43.09553383 15.83905602 43.09553383 14.75428772 43.09336853 C12.48198288 43.08775443 10.20977525 43.07519963 7.9375 43.0625 C6.40039204 43.05748681 4.86328255 43.05292359 3.32617188 43.04882812 C-0.44925642 43.03778042 -4.22461171 43.02050641 -8 43 C-7.38405593 37.05760627 -6.60609387 31.19408802 -5.5625 25.3125 C-5.44068359 24.59255859 -5.31886719 23.87261719 -5.19335938 23.13085938 C-4.64836261 20.03313166 -4.05122923 17.14916141 -3.02734375 14.16796875 C-1.53763153 9.57421737 -0.86388507 4.7513679 0 0 Z " fill="#254A7A" transform="translate(470,330)"/>
<path d="M0 0 C1.11955078 -0.04930664 1.11955078 -0.04930664 2.26171875 -0.09960938 C6.44208403 -0.1403032 8.00181101 0.027589 11.34375 2.77734375 C12.41109375 4.09412109 12.41109375 4.09412109 13.5 5.4375 C14.09425781 5.93894531 14.68851562 6.44039063 15.30078125 6.95703125 C17.67654812 9.88998123 16.655627 13.85807894 16.5 17.4375 C11.22 17.4375 5.94 17.4375 0.5 17.4375 C0.5 16.1175 0.5 14.7975 0.5 13.4375 C-1.15 13.7675 -2.8 14.0975 -4.5 14.4375 C-6.0056904 20.24516296 -6.71824777 25.4356863 -6.5 31.4375 C-5.51 31.4375 -4.52 31.4375 -3.5 31.4375 C-3.17 30.4475 -2.84 29.4575 -2.5 28.4375 C2.78 28.4375 8.06 28.4375 13.5 28.4375 C12.47822017 33.54639915 11.20098857 38.00751633 8.1875 42.3125 C2.38950633 46.17782912 -7.90139146 45.19306586 -14.5 44.4375 C-17.64831939 42.97234009 -19.4660293 41.22048848 -21.5 38.4375 C-22.139375 37.591875 -22.77875 36.74625 -23.4375 35.875 C-25.83463377 28.11956721 -25.61135118 19.76410403 -21.8359375 12.5078125 C-15.91704702 3.33526293 -10.83975158 0.08424677 0 0 Z " fill="#274C79" transform="translate(354.5,329.5625)"/>
<path d="M0 0 C4.26439336 4.03388561 4.61880232 7.37733421 5 13 C0.05 13 -4.9 13 -10 13 C-10.33 11.68 -10.66 10.36 -11 9 C-12.94999129 9.19471111 -12.94999129 9.19471111 -15 10 C-17.40718725 13.50761571 -17.39408944 17.09361001 -17.625 21.25 C-17.69976562 22.51328125 -17.77453125 23.7765625 -17.8515625 25.078125 C-17.90054688 26.04234375 -17.94953125 27.0065625 -18 28 C-16.68 28.33 -15.36 28.66 -14 29 C-13.67 27.68 -13.34 26.36 -13 25 C-7.72 25 -2.44 25 3 25 C1.8 33.4 1.8 33.4 -2 37 C-7.21424526 39.68494719 -11.30160605 40.47407476 -17.125 40.375 C-18.15947266 40.39240234 -18.15947266 40.39240234 -19.21484375 40.41015625 C-25.33073103 40.37507468 -28.33874096 38.51023549 -32.75 34.5 C-35.99132931 30.89852299 -36.13768925 28.23848933 -36.125 23.5625 C-36.12757812 22.61503906 -36.13015625 21.66757812 -36.1328125 20.69140625 C-36.01473475 18.29859541 -35.68112635 16.28663847 -35 14 C-34.34 14 -33.68 14 -33 14 C-32.938125 12.96875 -32.87625 11.9375 -32.8125 10.875 C-31.69097486 5.52618782 -28.96433098 2.89885328 -25.125 -0.8125 C-18.17357443 -4.69712017 -6.52097974 -4.50258125 0 0 Z " fill="#244A7B" transform="translate(124,333)"/>
<path d="M0 0 C10.23 0 20.46 0 31 0 C30.67 4.29 30.34 8.58 30 13 C24.72 13 19.44 13 14 13 C14 13.99 14 14.98 14 16 C18.29 16 22.58 16 27 16 C26.51855059 20.81449408 26.1991413 23.60171741 24 28 C19.38 28 14.76 28 10 28 C10 30.31 10 32.62 10 35 C9.23886641 37.82253707 8.13983606 40.29288935 7 43 C2.05 43 -2.9 43 -8 43 C-7.60825456 34.38160021 -6.38053705 26.68426041 -4.1328125 18.41015625 C-2.56807339 12.31846504 -1.31782154 6.14983387 0 0 Z " fill="#254A7A" transform="translate(430,330)"/>
<path d="M0 0 C5.28 0 10.56 0 16 0 C17.9955516 3.99110319 18.19546065 5.69986566 18 10 C21.49048317 7.0330893 22.4848307 4.40154628 25 0 C30.61 0 36.22 0 42 0 C42 1.65 42 3.3 42 5 C41.40453369 5.2460498 40.80906738 5.49209961 40.19555664 5.74560547 C37.62512698 7.21417742 36.54131148 8.63872296 34.87109375 11.0703125 C34.03094727 12.29234375 34.03094727 12.29234375 33.17382812 13.5390625 C32.60083984 14.39242188 32.02785156 15.24578125 31.4375 16.125 C30.86064453 16.95515625 30.28378906 17.7853125 29.68945312 18.640625 C25.28996898 25.115529 22.38244947 31.27101801 20.8125 39 C20.544375 40.32 20.27625 41.64 20 43 C14.72 43 9.44 43 4 43 C4.88607595 35.40506329 4.88607595 35.40506329 5.5625 33 C7.11977662 25.88102116 5.32891557 19.93251901 3 13.25 C2.43228124 11.59031767 1.86958053 9.9289083 1.3125 8.265625 C1.06113281 7.54149414 0.80976563 6.81736328 0.55078125 6.07128906 C0 4 0 4 0 0 Z " fill="#20477D" transform="translate(136,330)"/>
<path d="M0 0 C7.34426773 6.1758615 7.34426773 6.1758615 8.234375 10.86328125 C8.51941159 16.58776611 7.77752227 20.92734364 4.35546875 25.5859375 C0.834994 29.37194684 -2.63002731 31.89713848 -7.8125 32.71875 C-12.7236115 32.89414684 -16.47174154 32.68229809 -20.25 29.3125 C-24.77595841 24.87247751 -27.70691608 21.12569276 -27.9375 14.625 C-27.61128262 9.85823177 -26.45322101 6.96061282 -23.25 3.3125 C-22.651875 2.57 -22.05375 1.8275 -21.4375 1.0625 C-15.08522046 -4.01932363 -6.90508256 -3.58533133 0 0 Z " fill="#F8CF13" transform="translate(363.25,119.6875)"/>
<path d="M0 0 C3.38455374 2.02287641 5.31632731 4.44902141 6.76953125 8.08203125 C7.46543456 13.9972094 7.36138441 18.14035065 4.01953125 23.20703125 C-0.10346179 27.29184843 -3.33508584 30.34446501 -9.29296875 30.39453125 C-13.94007526 30.30544934 -17.14452768 30.02950576 -20.578125 26.62109375 C-24.89606123 21.78255527 -26.23512551 18.56722387 -26.04296875 11.95703125 C-25.63180977 6.91047722 -24.93871467 4.33310105 -21.10546875 0.95703125 C-14.14876082 -4.22841156 -7.54673404 -3.63837433 0 0 Z " fill="#F6CD0B" transform="translate(370.98046875,273.79296875)"/>
<path d="M0 0 C5.14320455 1.43903132 9.12455764 4.23819073 13.015625 7.84375 C15.25262495 12.3177499 14.62166705 18.00118546 14.015625 22.84375 C11.96786043 27.03139312 8.94151897 29.21977798 5.140625 31.78125 C0.44827232 33.37664991 -3.66783621 33.55458823 -8.4921875 32.07421875 C-13.01312567 29.8420941 -15.57352855 26.18725849 -17.984375 21.84375 C-19.13462443 18.17474926 -19.09453308 15.52250912 -17.984375 11.84375 C-13.83362197 3.9049311 -9.29328197 -0.85784141 0 0 Z " fill="#F5CC0C" transform="translate(441.984375,271.15625)"/>
<path d="M0 0 C1.32 0 2.64 0 4 0 C3.62869755 2.60902796 3.23010593 3.77948319 1.30102539 5.62817383 C0.57391357 6.14919678 -0.15319824 6.67021973 -0.90234375 7.20703125 C-1.70583252 7.79049316 -2.50932129 8.37395508 -3.3371582 8.97509766 C-4.195271 9.58144043 -5.05338379 10.1877832 -5.9375 10.8125 C-6.8039917 11.43688965 -7.6704834 12.0612793 -8.56323242 12.70458984 C-11.03436359 14.48098358 -13.51515955 16.24285527 -16 18 C-17.09120929 18.77725467 -18.18236732 19.55458131 -19.2734375 20.33203125 C-23.46772206 23.29384142 -27.71054183 26.17798805 -32 29 C-31.505 29.99 -31.505 29.99 -31 31 C-65.80730884 50.8562707 -65.80730884 50.8562707 -81.125 57.7109375 C-82.97254402 58.53932001 -84.80755893 59.39656912 -86.625 60.2890625 C-87.40875 60.66804688 -88.1925 61.04703125 -89 61.4375 C-89.66 61.76621094 -90.32 62.09492187 -91 62.43359375 C-93 63 -93 63 -95.2109375 62.421875 C-99.43329934 61.78319842 -102.69635778 63.32752687 -106.625 64.8125 C-107.388125 65.08642578 -108.15125 65.36035156 -108.9375 65.64257812 C-112.29524207 66.87080483 -114.99879262 67.99919508 -118 70 C-120.32914823 70.36141955 -122.66253478 70.69699525 -125 71 C-125.495 71.495 -125.495 71.495 -126 72 C-127.99958364 72.04080783 -130.00045254 72.04254356 -132 72 C-132 71.34 -132 70.68 -132 70 C-131.41734375 69.84966309 -130.8346875 69.69932617 -130.234375 69.54443359 C-113.7996408 65.27101509 -98.42125279 60.11301886 -83 53 C-82.07469482 52.57614014 -81.14938965 52.15228027 -80.19604492 51.71557617 C-67.86017928 46.03218668 -55.82505605 39.97062759 -44.0625 33.1875 C-43.00409912 32.57793457 -41.94569824 31.96836914 -40.85522461 31.34033203 C-34.33570703 27.52349796 -28.14071531 23.39456493 -22 19 C-20.6043945 18.03625062 -19.20609883 17.07638106 -17.8046875 16.12109375 C-16.83015625 15.45557495 -16.83015625 15.45557495 -15.8359375 14.77661133 C-15.18882812 14.33470459 -14.54171875 13.89279785 -13.875 13.4375 C-8.48448361 9.74608552 -3.17598736 5.98982359 2 2 C1.01 1.01 1.01 1.01 0 0 Z " fill="#D1B322" transform="translate(356,27)"/>
<path d="M0 0 C2.16900772 2.09290218 2.90567613 3.46974688 3.43359375 6.4375 C3.44398492 13.25410534 3.44398492 13.25410534 1.4375 16.625 C-1.94702327 18.53421825 -4.16705339 18.47071274 -8 18 C-10.31279611 16.84360194 -12.17409828 15.82590172 -14 14 C-14.49794072 9.51853355 -14.74414491 5.42064029 -12.625 1.375 C-8.63409959 -0.71547164 -4.39600278 -0.99809078 0 0 Z " fill="#385570" transform="translate(251,304)"/>
<path d="M0 0 C0.66 0.33 1.32 0.66 2 1 C1.67 1.33 1.34 1.66 1 2 C0.90482197 4.76938966 0.87445735 7.51377159 0.88647461 10.28344727 C0.88632858 11.15166107 0.88618256 12.01987488 0.8860321 12.91439819 C0.88673154 15.79842586 0.89452537 18.6823898 0.90234375 21.56640625 C0.90420782 23.56037867 0.90563177 25.55435155 0.90663147 27.54832458 C0.91045752 32.80745702 0.92028855 38.06656203 0.93133545 43.32568359 C0.9415477 48.68782175 0.94612869 54.04996431 0.95117188 59.41210938 C0.96191074 69.94142027 0.97950824 80.47070357 1 91 C19.315 91.495 19.315 91.495 38 92 C37.67 92.66 37.34 93.32 37 94 C24.46 94 11.92 94 -1 94 C-2.28161681 90.15514958 -2.14748264 86.52787574 -2.14526367 82.52124023 C-2.14862228 81.65594696 -2.1519809 80.79065369 -2.15544128 79.8991394 C-2.16494967 77.03560964 -2.16689412 74.17213832 -2.16796875 71.30859375 C-2.1711806 69.32227046 -2.17454462 67.33594742 -2.17805481 65.34962463 C-2.18404522 61.18595836 -2.18589472 57.02231285 -2.18530273 52.85864258 C-2.18520093 47.51280828 -2.19887216 42.16710626 -2.21607494 36.82130337 C-2.22716841 32.71990848 -2.22922279 28.61854589 -2.22869301 24.51713753 C-2.22987641 22.54548752 -2.23431819 20.57383676 -2.24202538 18.60220146 C-2.25177503 15.85116032 -2.24896762 13.10041063 -2.24291992 10.34936523 C-2.24853943 9.52905319 -2.25415894 8.70874115 -2.25994873 7.86357117 C-2.22831774 2.22831774 -2.22831774 2.22831774 0 0 Z " fill="#526160" transform="translate(199,136)"/>
<path d="M0 0 C6.27 0 12.54 0 19 0 C19 7 19 7 16 13 C9.73 13 3.46 13 -3 13 C-2 6 -2 6 0 0 Z " fill="#20487D" transform="translate(523,350)"/>
<path d="M0 0 C-4.95 1.65 -9.9 3.3 -15 5 C-14.01 5.66 -13.02 6.32 -12 7 C-13.2375 7.226875 -14.475 7.45375 -15.75 7.6875 C-21.81804345 9.03066189 -27.32060136 11.5290928 -33 14 C-34.85042017 14.77978411 -36.70433462 15.55135646 -38.5625 16.3125 C-39.34753906 16.63863281 -40.13257813 16.96476562 -40.94140625 17.30078125 C-43 18 -43 18 -46 18 C-46 18.66 -46 19.32 -46 20 C-46.91265625 20.29390625 -46.91265625 20.29390625 -47.84375 20.59375 C-56.64491035 23.59649882 -64.75901078 27.73991523 -73 32 C-73 31.34 -73 30.68 -73 30 C-73.66 29.67 -74.32 29.34 -75 29 C-74.154375 28.5875 -73.30875 28.175 -72.4375 27.75 C-69.55641872 26.28326771 -66.7737128 24.72854905 -64.00390625 23.0625 C-61.67526179 21.82781912 -59.26750392 20.83029491 -56.84008789 19.80761719 C-53.96991065 18.54789232 -51.21554504 17.07470001 -48.4375 15.625 C-42.69887907 12.69894742 -36.90721469 10.40279095 -30.80078125 8.328125 C-25.50501609 6.51697615 -20.3203436 4.40801329 -15.12792969 2.32226562 C-5.67985298 -1.41996324 -5.67985298 -1.41996324 0 0 Z " fill="#CAAD22" transform="translate(270,106)"/>
<path d="M0 0 C0.33 0 0.66 0 1 0 C1 4.95 1 9.9 1 15 C5.62 15 10.24 15 15 15 C15 30.84 15 46.68 15 63 C20.61 63 26.22 63 32 63 C32 47.16 32 31.32 32 15 C36.29 15 40.58 15 45 15 C45 15.33 45 15.66 45 16 C41.04 16 37.08 16 33 16 C33 31.84 33 47.68 33 64 C26.4 64 19.8 64 13 64 C13 48.49 13 32.98 13 17 C8.71 17 4.42 17 0 17 C0 11.39 0 5.78 0 0 Z " fill="#7E7C4A" transform="translate(182,256)"/>
<path d="M0 0 C11.22 0 22.44 0 34 0 C34 0.66 34 1.32 34 2 C26.77648171 2.96465491 19.71937932 3.11956114 12.4375 3.0625 C11.33341797 3.05798828 10.22933594 3.05347656 9.09179688 3.04882812 C6.394473 3.0371514 3.69726653 3.02077525 1 3 C1.00222061 3.54901474 1.00444122 4.09802948 1.00672913 4.66368103 C1.02878358 10.35707959 1.04390726 16.0504661 1.05493164 21.74389648 C1.05997298 23.87118014 1.06680591 25.99846031 1.07543945 28.12573242 C1.08751379 31.17627826 1.09323014 34.22677845 1.09765625 37.27734375 C1.10281754 38.23462875 1.10797882 39.19191376 1.11329651 40.1782074 C1.11337204 41.05904495 1.11344757 41.93988251 1.11352539 42.84741211 C1.115746 43.62684677 1.11796661 44.40628143 1.12025452 45.20933533 C1 47 1 47 0 48 C-2.8843382 48.08865208 -5.74462158 48.11521296 -8.62890625 48.09765625 C-9.92525246 48.09553383 -9.92525246 48.09553383 -11.24778748 48.09336853 C-14.01939292 48.08775239 -16.7909188 48.07519719 -19.5625 48.0625 C-21.4368478 48.05748708 -23.31119685 48.05292381 -25.18554688 48.04882812 C-29.79039544 48.03777772 -34.39518421 48.0205023 -39 48 C-39 47.34 -39 46.68 -39 46 C-26.13 46 -13.26 46 0 46 C0 30.82 0 15.64 0 0 Z " fill="#C5AD51" transform="translate(340,182)"/>
<path d="M0 0 C0.33 0 0.66 0 1 0 C1.71451958 5.25623597 0.1726456 7.79177465 -2.81079102 11.86181641 C-3.34760498 12.56741699 -3.88441895 13.27301758 -4.4375 14 C-5.54131194 15.50616655 -6.64284599 17.01400492 -7.7421875 18.5234375 C-8.29229492 19.27334961 -8.84240234 20.02326172 -9.40917969 20.79589844 C-11.72796152 24.00859985 -13.91544808 27.29581193 -16.0625 30.625 C-16.75472656 31.68976563 -17.44695312 32.75453125 -18.16015625 33.8515625 C-20.1012117 37.17319879 -21.56002988 40.43820475 -23 44 C-23.66 44 -24.32 44 -25 44 C-25.268125 44.70125 -25.53625 45.4025 -25.8125 46.125 C-27.0681449 49.1649824 -28.50235123 52.0727774 -30 55 C-30.33 54.34 -30.66 53.68 -31 53 C-31.99 52.67 -32.98 52.34 -34 52 C-33.01 52 -32.02 52 -31 52 C-30.505 49.03 -30.505 49.03 -30 46 C-29.34 46 -28.68 46 -28 46 C-27.91878906 45.32710937 -27.83757812 44.65421875 -27.75390625 43.9609375 C-26.77679169 40.12335803 -24.95210832 36.99294215 -22.9375 33.625 C-22.51283447 32.90763672 -22.08816895 32.19027344 -21.65063477 31.45117188 C-6.69301801 6.69301801 -6.69301801 6.69301801 0 0 Z " fill="#D1B32C" transform="translate(333,81)"/>
<path d="M0 0 C5.94 0 11.88 0 18 0 C17.67 3.63 17.34 7.26 17 11 C11.06 11 5.12 11 -1 11 C-0.67 7.37 -0.34 3.74 0 0 Z " fill="#264A79" transform="translate(46,351)"/>
<path d="M0 0 C5.94 0 11.88 0 18 0 C18.99 0.99 19.98 1.98 21 3 C20.67 3.66 20.34 4.32 20 5 C19.34 4.34 18.68 3.68 18 3 C12.39 2.67 6.78 2.34 1 2 C1 22.46 1 42.92 1 64 C6.28 64 11.56 64 17 64 C17 51.79 17 39.58 17 27 C17.66 27 18.32 27 19 27 C20.26796959 30.83024823 20.05016246 34.59878658 19.9140625 38.57421875 C19.89282318 39.29865677 19.87158386 40.02309479 19.84970093 40.76948547 C19.80357025 42.29505767 19.75465332 43.82054785 19.703125 45.34594727 C19.62493512 47.68944451 19.55795638 50.03307794 19.4921875 52.37695312 C19.44598029 53.85939597 19.3991279 55.34181887 19.3515625 56.82421875 C19.33171295 57.52834396 19.3118634 58.23246918 19.29141235 58.95793152 C19.11514009 63.88485991 19.11514009 63.88485991 18 65 C12.06 65 6.12 65 0 65 C0 43.55 0 22.1 0 0 Z " fill="#4F6264" transform="translate(62,255)"/>
<path d="M0 0 C9.625 -0.25 9.625 -0.25 13 2 C13.29296875 4.1640625 13.29296875 4.1640625 13.1875 6.625 C13.16042969 7.44226563 13.13335937 8.25953125 13.10546875 9.1015625 C13.07066406 9.72804688 13.03585937 10.35453125 13 11 C8.57669127 13.57688169 5.0308706 13.14796678 0 13 C0 8.71 0 4.42 0 0 Z " fill="#F9CE0A" transform="translate(287,271)"/>
<path d="M0 0 C0.33 0.99 0.66 1.98 1 3 C6.61 3 12.22 3 18 3 C18.25 11.5 18.25 11.5 16 16 C5.11 16 -5.78 16 -17 16 C-18 12 -18 12 -17.0625 9.75 C-16.711875 9.1725 -16.36125 8.595 -16 8 C-16 9.98 -16 11.96 -16 14 C-5.77 14 4.46 14 15 14 C15.66 10.7 16.32 7.4 17 4 C11.39 4 5.78 4 0 4 C0 2.68 0 1.36 0 0 Z " fill="#8F853E" transform="translate(240,358)"/>
<path d="M0 0 C0.66 0.33 1.32 0.66 2 1 C0.68 2.65 -0.64 4.3 -2 6 C1.465 5.505 1.465 5.505 5 5 C4.01 6.485 4.01 6.485 3 8 C1.68 8 0.36 8 -1 8 C-1.33 8.99 -1.66 9.98 -2 11 C-4.58203125 12.3515625 -4.58203125 12.3515625 -7.8125 13.625 C-8.87082031 14.05039063 -9.92914063 14.47578125 -11.01953125 14.9140625 C-13.35066819 15.76341515 -15.58132467 16.4729279 -18 17 C-17.7354913 13.76711585 -16.95343311 12.95943252 -14.453125 10.78125 C-12.86757812 9.65203125 -12.86757812 9.65203125 -11.25 8.5 C-7.42268376 5.74734891 -3.65546522 2.97852721 0 0 Z " fill="#78774B" transform="translate(191,129)"/>
<path d="M0 0 C0.53625 0.226875 1.0725 0.45375 1.625 0.6875 C1.150625 1.14125 0.67625 1.595 0.1875 2.0625 C-1.46527808 3.62008204 -1.46527808 3.62008204 -2.375 5.6875 C-8.69932432 7.91272523 -8.69932432 7.91272523 -12.375 6.6875 C-14.28620007 7.06361712 -14.28620007 7.06361712 -16.28125 7.83203125 C-17.02503906 8.09693359 -17.76882812 8.36183594 -18.53515625 8.63476562 C-19.30730469 8.92029297 -20.07945312 9.20582031 -20.875 9.5 C-21.64714844 9.77392578 -22.41929687 10.04785156 -23.21484375 10.33007812 C-26.61091665 11.55725525 -29.34366879 12.66661252 -32.375 14.6875 C-34.70414823 15.04891955 -37.03753478 15.38449525 -39.375 15.6875 C-39.705 16.0175 -40.035 16.3475 -40.375 16.6875 C-42.37458364 16.72830783 -44.37545254 16.73004356 -46.375 16.6875 C-46.375 16.0275 -46.375 15.3675 -46.375 14.6875 C-45.79234375 14.53716309 -45.2096875 14.38682617 -44.609375 14.23193359 C-24.33460759 9.0620929 -24.33460759 9.0620929 -5.0859375 0.9921875 C-2.375 -0.3125 -2.375 -0.3125 0 0 Z " fill="#BBA75D" transform="translate(270.375,82.3125)"/>
<path d="M0 0 C-4.95 1.65 -9.9 3.3 -15 5 C-14.01 5.66 -13.02 6.32 -12 7 C-13.258125 7.2475 -14.51625 7.495 -15.8125 7.75 C-19.55780122 8.56983759 -23.04255094 9.69988106 -26.625 11.0625 C-30.78372037 12.62997319 -34.56794635 13.49825808 -39 14 C-41.68593564 14.60481175 -44.33676825 15.29914954 -47 16 C-45.26987131 12.53974263 -41.05338621 12.03461621 -37.5625 10.8125 C-35.83145307 10.19301952 -34.10099849 9.57188169 -32.37109375 8.94921875 C-31.03860596 8.4704126 -31.03860596 8.4704126 -29.67919922 7.98193359 C-24.70751665 6.15979879 -19.7903189 4.19581727 -14.87719727 2.22192383 C-5.67914865 -1.41978716 -5.67914865 -1.41978716 0 0 Z " fill="#A18F34" transform="translate(270,106)"/>
<path d="M0 0 C10.23 0 20.46 0 31 0 C30.67 4.29 30.34 8.58 30 13 C24.72 13 19.44 13 14 13 C14 12.67 14 12.34 14 12 C18.95 12 23.9 12 29 12 C29 8.7 29 5.4 29 2 C19.76 2 10.52 2 1 2 C0.67 3.65 0.34 5.3 0 7 C-1 4 -1 4 0 0 Z " fill="#6D7553" transform="translate(430,330)"/>
<path d="M0 0 C2.475 0.495 2.475 0.495 5 1 C4.67 5.29 4.34 9.58 4 14 C8.95 14 13.9 14 19 14 C19 12.35 19 10.7 19 9 C19.33 9 19.66 9 20 9 C20 10.98 20 12.96 20 15 C14.39 15 8.78 15 3 15 C2.67 11.04 2.34 7.08 2 3 C0.35696827 4.64303173 0.68137147 6.68007295 0.5 8.9375 C0.10977702 13.78044597 0.10977702 13.78044597 -1 16 C-6.61 16 -12.22 16 -18 16 C-18 13.03 -18 10.06 -18 7 C-17.34 6.67 -16.68 6.34 -16 6 C-16.33 8.97 -16.66 11.94 -17 15 C-12.05 15 -7.1 15 -2 15 C-1.855625 13.081875 -1.71125 11.16375 -1.5625 9.1875 C-1.31275672 5.86948218 -1.0541518 3.16245541 0 0 Z " fill="#A49335" transform="translate(282,358)"/>
<path d="M0 0 C1.32 0 2.64 0 4 0 C3.62869755 2.60902796 3.23010593 3.77948319 1.30102539 5.62817383 C0.57391357 6.14919678 -0.15319824 6.67021973 -0.90234375 7.20703125 C-1.70583252 7.79049316 -2.50932129 8.37395508 -3.3371582 8.97509766 C-4.195271 9.58144043 -5.05338379 10.1877832 -5.9375 10.8125 C-6.8039917 11.43688965 -7.6704834 12.0612793 -8.56323242 12.70458984 C-11.03436359 14.48098358 -13.51515955 16.24285527 -16 18 C-17.09120929 18.77725467 -18.18236732 19.55458131 -19.2734375 20.33203125 C-23.46772206 23.29384142 -27.71054183 26.17798805 -32 29 C-31.67 29.66 -31.34 30.32 -31 31 C-34.28976808 32.09658936 -35.71303767 31.79953138 -39 31 C-34.32232678 27.0501805 -29.23435437 23.79007072 -24.125 20.4375 C-15.21301751 14.5499881 -6.53281628 8.42254989 2 2 C1.34 1.34 0.68 0.68 0 0 Z " fill="#C2B06B" transform="translate(356,27)"/>
<path d="M0 0 C10.56 0 21.12 0 32 0 C31.67 2.97 31.34 5.94 31 9 C30.67 9 30.34 9 30 9 C30 6.69 30 4.38 30 2 C20.43 2 10.86 2 1 2 C0.67 4.97 0.34 7.94 0 11 C-0.33 11 -0.66 11 -1 11 C-1.07622858 7.03611362 -0.9681648 3.8726592 0 0 Z " fill="#697556" transform="translate(470,330)"/>
<path d="M0 0 C6.27 0 12.54 0 19 0 C19 7 19 7 16 13 C9.73 13 3.46 13 -3 13 C-2.67 10.69 -2.34 8.38 -2 6 C-1.67 6 -1.34 6 -1 6 C-1 7.65 -1 9.3 -1 11 C4.61 11 10.22 11 16 11 C16.33 7.7 16.66 4.4 17 1 C11.39 1 5.78 1 0 1 C0 0.67 0 0.34 0 0 Z " fill="#837F45" transform="translate(523,350)"/>
<path d="M0 0 C0.66 0.33 1.32 0.66 2 1 C2.05878077 4.64576392 2.0938558 8.29140352 2.125 11.9375 C2.14175781 12.95908203 2.15851563 13.98066406 2.17578125 15.03320312 C2.22383889 22.55422354 2.06539035 30.40639507 -2 37 C-3.485 37.495 -3.485 37.495 -5 38 C-4.52140759 36.39566191 -4.04210442 34.79153584 -3.5625 33.1875 C-3.29566406 32.29417969 -3.02882813 31.40085938 -2.75390625 30.48046875 C-2.19612127 28.64526945 -1.60655425 26.81966274 -1 25 C-0.85060226 23.08234406 -0.75189717 21.16053478 -0.68359375 19.23828125 C-0.64169922 18.12001953 -0.59980469 17.00175781 -0.55664062 15.84960938 C-0.51732422 14.68236328 -0.47800781 13.51511719 -0.4375 12.3125 C-0.37272461 10.54422852 -0.37272461 10.54422852 -0.30664062 8.74023438 C-0.20048824 5.82694117 -0.09843758 2.91356243 0 0 Z " fill="#ECD05E" transform="translate(409,123)"/>
<path d="M0 0 C0.66 0 1.32 0 2 0 C1.21681311 3.91593446 -0.39179858 7.36406635 -2 11 C-2.66 11 -3.32 11 -4 11 C-4.268125 11.70125 -4.53625 12.4025 -4.8125 13.125 C-6.0681449 16.1649824 -7.50235123 19.0727774 -9 22 C-9.33 21.34 -9.66 20.68 -10 20 C-10.99 19.67 -11.98 19.34 -13 19 C-12.01 19 -11.02 19 -10 19 C-9.67 17.02 -9.34 15.04 -9 13 C-8.34 13 -7.68 13 -7 13 C-6.8453125 11.9171875 -6.8453125 11.9171875 -6.6875 10.8125 C-5.92653591 7.69946508 -4.9090983 5.56994002 -3 3 C-2.01 3 -1.02 3 0 3 C0 2.01 0 1.02 0 0 Z " fill="#E1C031" transform="translate(312,114)"/>
<path d="M0 0 C2.25464501 1.48779019 2.93345505 2.78610903 3.91796875 5.265625 C2.96921875 4.62625 2.02046875 3.986875 1.04296875 3.328125 C-3.46481351 0.76272046 -7.9231565 0.04591142 -13.08203125 0.265625 C-18.29237975 2.3497644 -22.01104287 6.65914243 -25.08203125 11.265625 C-25.58203125 8.703125 -25.58203125 8.703125 -25.08203125 5.265625 C-17.62158651 -3.29040953 -10.27179411 -4.455236 0 0 Z " fill="#A99430" transform="translate(371.08203125,273.734375)"/>
<path d="M0 0 C5.28 0 10.56 0 16 0 C17.9955516 3.99110319 18.19546065 5.69986566 18 10 C18.99 9.67 19.98 9.34 21 9 C20.67 10.65 20.34 12.3 20 14 C19.01 14 18.02 14 17 14 C16.34 10.37 15.68 6.74 15 3 C11.04 3 7.08 3 3 3 C2.67 4.65 2.34 6.3 2 8 C0.23537317 4.91190305 0 3.76687864 0 0 Z " fill="#657259" transform="translate(136,330)"/>
<path d="M0 0 C0.63671875 1.84765625 0.63671875 1.84765625 1 4 C-1.1875 6.4375 -1.1875 6.4375 -4 9 C-4.8971875 10.2375 -4.8971875 10.2375 -5.8125 11.5 C-10.75677245 17.15059709 -16.72864568 19.68877217 -24 21 C-27 21.125 -27 21.125 -29 21 C-26.31217183 19.62286557 -23.60060398 18.40790111 -20.8125 17.25 C-11.69594749 13.16326956 -5.69423831 8.23925158 0 0 Z " fill="#C4B065" transform="translate(403,161)"/>
<path d="M0 0 C0.81082031 0.16242188 1.62164062 0.32484375 2.45703125 0.4921875 C6.57127202 1.08188022 10.53909198 1.1464758 14.6875 1.125 C15.44611328 1.12886719 16.20472656 1.13273437 16.98632812 1.13671875 C20.2477639 1.13096158 22.88513748 1.03828751 26 0 C28.33299825 -0.03954234 30.66708189 -0.04401732 33 0 C29.89336733 3.40250245 27.76760989 3.96016396 23.0859375 4.203125 C14.83314557 4.33654601 7.67857306 4.41269914 0 1 C0 0.67 0 0.34 0 0 Z " fill="#7B7644" transform="translate(424,319)"/>
<path d="M0 0 C-5.76075466 3.7936677 -11.9556519 5.77867358 -18.4765625 7.8515625 C-21.37802195 8.79727101 -24.18586252 9.82474718 -27 11 C-27 10.34 -27 9.68 -27 9 C-28.32 8.67 -29.64 8.34 -31 8 C-29.72125 7.7525 -28.4425 7.505 -27.125 7.25 C-21.02888552 5.90062458 -15.46109419 3.46545468 -9.73046875 1.0390625 C-6.00832033 -0.46637044 -3.83254946 -1.24093562 0 0 Z " fill="#D2B321" transform="translate(262,89)"/>
<path d="M0 0 C3.3 0 6.6 0 10 0 C10.33 0.66 10.66 1.32 11 2 C8.03 1.67 5.06 1.34 2 1 C2 4.3 2 7.6 2 11 C6.455 10.505 6.455 10.505 11 10 C11.33 7.36 11.66 4.72 12 2 C12.33 2 12.66 2 13 2 C13 4.97 13 7.94 13 11 C8.0811341 13.45943295 5.41699411 13.15932336 0 13 C0 8.71 0 4.42 0 0 Z " fill="#A19439" transform="translate(287,271)"/>
<path d="M0 0 C1.2065625 0.0309375 1.2065625 0.0309375 2.4375 0.0625 C-1.21067482 4.32698774 -5.76405135 6.62068623 -10.625 9.25 C-11.44033203 9.70052734 -12.25566406 10.15105469 -13.09570312 10.61523438 C-16.24087486 12.33900557 -19.15210272 13.92570091 -22.5625 15.0625 C-22.8925 14.4025 -23.2225 13.7425 -23.5625 13.0625 C-22.87285156 12.69898437 -22.18320312 12.33546875 -21.47265625 11.9609375 C-15.63971061 8.8404316 -6.36150415 0.15515864 0 0 Z " fill="#E0BD1A" transform="translate(319.5625,57.9375)"/>
<path d="M0 0 C1 4 1 4 0 12 C-5.61 12 -11.22 12 -17 12 C-17 11.01 -17 10.02 -17 9 C-11.72 9 -6.44 9 -1 9 C-0.67 6.03 -0.34 3.06 0 0 Z " fill="#D2B11E" transform="translate(258,349)"/>
<path d="M0 0 C0.763125 0.639375 1.52625 1.27875 2.3125 1.9375 C6.68818124 5.29558095 10.57642718 5.18272651 15.875 5.1875 C16.58269531 5.19974609 17.29039063 5.21199219 18.01953125 5.22460938 C22.13432929 5.23610322 25.30160538 4.8346938 29 3 C28.67 3.99 28.34 4.98 28 6 C21.36575996 8.95298504 14.10425244 8.9111976 7 8 C4.0008356 6.49116112 1.86672568 4.80372029 0 2 C0 1.34 0 0.68 0 0 Z " fill="#9C8A36" transform="translate(91,367)"/>
<path d="M0 0 C0 0.99 0 1.98 0 3 C-3.98592675 6.98592675 -10.33461115 6.18608491 -15.6875 6.25 C-17.64236328 6.28867187 -17.64236328 6.28867187 -19.63671875 6.328125 C-23.29445614 5.97127257 -23.72373219 5.6110511 -26 3 C-24.19015625 3.05220703 -24.19015625 3.05220703 -22.34375 3.10546875 C-20.72918072 3.13362984 -19.11459621 3.16092749 -17.5 3.1875 C-16.70851563 3.21263672 -15.91703125 3.23777344 -15.1015625 3.26367188 C-9.37869682 3.33403498 -5.24796143 2.29297398 0 0 Z " fill="#656A51" transform="translate(363,368)"/>
<path d="M0 0 C2.95064148 -0.2208564 5.68368231 -0.28060989 8.625 -0.1875 C9.42679688 -0.17396484 10.22859375 -0.16042969 11.0546875 -0.14648438 C13.03674378 -0.11109051 15.01845551 -0.05728234 17 0 C17 1.65 17 3.3 17 5 C16.01 5.495 16.01 5.495 15 6 C15 4.68 15 3.36 15 2 C10.38 2 5.76 2 1 2 C1 2.66 1 3.32 1 4 C0.34 4 -0.32 4 -1 4 C-1.33 5.65 -1.66 7.3 -2 9 C-2.66 9 -3.32 9 -4 9 C-2.94124926 5.59687262 -1.99097846 2.98646769 0 0 Z " fill="#777D50" transform="translate(161,330)"/>
<path d="M0 0 C0.33 0 0.66 0 1 0 C1.0501123 0.66531738 1.10022461 1.33063477 1.15185547 2.01611328 C1.38506072 5.05306969 1.62992364 8.08897946 1.875 11.125 C1.95363281 12.17171875 2.03226562 13.2184375 2.11328125 14.296875 C2.53922339 19.47371022 3.00059391 24.1442995 5 29 C0.84644857 25.67715886 -0.38152591 22.12785482 -1 17 C-1.53529412 4.60588235 -1.53529412 4.60588235 0 0 Z " fill="#757951" transform="translate(326,278)"/>
<path d="M0 0 C0.66 0.33 1.32 0.66 2 1 C0.68 2.65 -0.64 4.3 -2 6 C1.465 5.505 1.465 5.505 5 5 C2.81915421 8.27126868 2.18713893 8.59023384 -1.375 9.75 C-2.14585937 10.01296875 -2.91671875 10.2759375 -3.7109375 10.546875 C-6.1871984 11.03705634 -7.63241221 10.80000683 -10 10 C-3.84965831 2.51708428 -3.84965831 2.51708428 0 0 Z " fill="#465C67" transform="translate(191,129)"/>
<path d="M0 0 C0.66 0.33 1.32 0.66 2 1 C-2.50104183 4.53000489 -6.8011864 7.55974056 -12 10 C-14.29032385 11.35975444 -16.57819031 12.72142145 -18.8515625 14.109375 C-21.42152251 15.17474024 -22.40411136 14.77312779 -25 14 C-23.865625 13.40832031 -22.73125 12.81664063 -21.5625 12.20703125 C-20.04158068 11.40901803 -18.5207522 10.61083165 -17 9.8125 C-16.25621094 9.42513672 -15.51242187 9.03777344 -14.74609375 8.63867188 C-10.20559504 6.24997473 -5.87827167 3.70542014 -1.62890625 0.8269043 C-1.09136719 0.55402588 -0.55382812 0.28114746 0 0 Z " fill="#BDAB6B" transform="translate(315,58)"/>
<path d="M0 0 C0 0.66 0 1.32 0 2 C-1.60149886 2.67305018 -3.20631029 3.33822227 -4.8125 4 C-5.70582031 4.37125 -6.59914062 4.7425 -7.51953125 5.125 C-10 6 -10 6 -13 6 C-13 6.66 -13 7.32 -13 8 C-15.31 7.67 -17.62 7.34 -20 7 C-16.85988091 4.36562124 -13.88491259 3.07995273 -10 1.8125 C-8.96875 1.46832031 -7.9375 1.12414062 -6.875 0.76953125 C-4 0 -4 0 0 0 Z " fill="#C2A827" transform="translate(237,118)"/>
<path d="M0 0 C-3.3 2.64 -6.6 5.28 -10 8 C-10.66 7.34 -11.32 6.68 -12 6 C-15.09926819 6.32198966 -15.09926819 6.32198966 -18 7 C-15.13443321 4.7446928 -12.23722426 2.92782965 -9 1.25 C-8.154375 0.80140625 -7.30875 0.3528125 -6.4375 -0.109375 C-4 -1 -4 -1 0 0 Z " fill="#F8EEC1" transform="translate(359,29)"/>
<path d="M0 0 C0 9.24 0 18.48 0 28 C-0.33 28 -0.66 28 -1 28 C-1.33 19.42 -1.66 10.84 -2 2 C-6.455 2.495 -6.455 2.495 -11 3 C-7.88866897 -0.11133103 -4.26881718 0 0 0 Z " fill="#CEB023" transform="translate(298,97)"/>
<path d="M0 0 C0.33 0 0.66 0 1 0 C1.26570232 6.05303105 0.25909363 11.52911806 -1 17.4375 C-1.28617188 18.82098633 -1.28617188 18.82098633 -1.578125 20.23242188 C-2.04594208 22.48963929 -2.52002747 24.7453418 -3 27 C-3.66 27 -4.32 27 -5 27 C-4.41117785 17.72605107 -2.24113144 8.9853735 0 0 Z " fill="#6B7558" transform="translate(230,333)"/>
<path d="M0 0 C4.95 0 9.9 0 15 0 C14.67 1.98 14.34 3.96 14 6 C13.67 5.01 13.34 4.02 13 3 C8.71 3 4.42 3 0 3 C0 2.01 0 1.02 0 0 Z " fill="#E0BB18" transform="translate(444,343)"/>
<path d="M0 0 C-0.7115625 0.680625 -0.7115625 0.680625 -1.4375 1.375 C-3.09027808 2.93258204 -3.09027808 2.93258204 -4 5 C-6.3140622 5.73075648 -8.64828869 6.40138258 -11 7 C-11.66 6.01 -12.32 5.02 -13 4 C-3.96186441 -1.18855932 -3.96186441 -1.18855932 0 0 Z " fill="#C1AD52" transform="translate(272,83)"/>
<path d="M0 0 C10.395 0.99 10.395 0.99 21 2 C21 2.66 21 3.32 21 4 C18.77090129 4.02714735 16.54170633 4.04646254 14.3125 4.0625 C13.07113281 4.07410156 11.82976562 4.08570313 10.55078125 4.09765625 C7.53764546 4.01478673 4.91724661 3.70839449 2 3 C2 2.34 2 1.68 2 1 C1.34 0.67 0.68 0.34 0 0 Z " fill="#6B6B4C" transform="translate(347,319)"/>
<path d="M0 0 C0.66 0.33 1.32 0.66 2 1 C-1.72346836 5.42094803 -5.29521038 9.57833482 -10 13 C-10 8.41771462 -7.08388033 6.1816619 -4 3 C-1.625 1.0625 -1.625 1.0625 0 0 Z " fill="#4E6466" transform="translate(420,258)"/>
<path d="M0 0 C0.33 1.32 0.66 2.64 1 4 C5.95 4 10.9 4 16 4 C16 4.66 16 5.32 16 6 C10.72 6 5.44 6 0 6 C-0.33 4.35 -0.66 2.7 -1 1 C-0.67 0.67 -0.34 0.34 0 0 Z " fill="#D5B31D" transform="translate(372,369)"/>
<path d="M0 0 C1.66611905 -0.042721 3.33382885 -0.04063832 5 0 C6 1 6 1 6.125 3.5 C6 6 6 6 5 7 C3.33382885 7.04063832 1.66611905 7.042721 0 7 C0 4.69 0 2.38 0 0 Z " fill="#7F7E4A" transform="translate(194,356)"/>
<path d="M0 0 C-1.49895671 3.81552617 -3.7986856 5.53745046 -7 8 C-8.14814997 10.29629994 -8.30769809 12.07698086 -8.5625 14.625 C-8.64628906 15.44226563 -8.73007812 16.25953125 -8.81640625 17.1015625 C-8.87699219 17.72804687 -8.93757813 18.35453125 -9 19 C-9.33 19 -9.66 19 -10 19 C-10.78649032 9.02031176 -10.78649032 9.02031176 -7.6875 5 C-6.800625 4.34 -5.91375 3.68 -5 3 C-4.443125 2.401875 -3.88625 1.80375 -3.3125 1.1875 C-2 0 -2 0 0 0 Z " fill="#E8CB4F" transform="translate(346,121)"/>
<path d="M0 0 C0 0.66 0 1.32 0 2 C-2.24307028 3.20250158 -4.4928791 4.3869162 -6.75 5.5625 C-7.70132812 6.07586914 -7.70132812 6.07586914 -8.671875 6.59960938 C-13.50498766 9.09168309 -13.50498766 9.09168309 -16.21582031 8.58959961 C-16.80459961 8.39503174 -17.39337891 8.20046387 -18 8 C-15.3773768 6.66180502 -12.75213401 5.3292849 -10.125 4 C-9.00544922 3.42765625 -9.00544922 3.42765625 -7.86328125 2.84375 C-7.14785156 2.4828125 -6.43242187 2.121875 -5.6953125 1.75 C-5.03547363 1.41484375 -4.37563477 1.0796875 -3.69580078 0.734375 C-2 0 -2 0 0 0 Z " fill="#BEAF77" transform="translate(290,73)"/>
<path d="M0 0 C1.53271273 4.58798777 0.02911182 6.77944742 -2 11 C-2.99 10.67 -3.98 10.34 -5 10 C-5 10.99 -5 11.98 -5 13 C-5.66 13 -6.32 13 -7 13 C-5.35821735 8.22390502 -2.73453298 4.20617096 0 0 Z " fill="#B9A12F" transform="translate(317,104)"/>
<path d="M0 0 C0.66 0.33 1.32 0.66 2 1 C0.73657512 2.48549956 -0.5360103 3.96321189 -1.8125 5.4375 C-2.52019531 6.26121094 -3.22789063 7.08492188 -3.95703125 7.93359375 C-6 10 -6 10 -9 11 C-7.44095325 7.17324889 -4.96833913 4.81992217 -2 2 C-1.34 1.34 -0.68 0.68 0 0 Z " fill="#576A61" transform="translate(101,331)"/>
<path d="M0 0 C1.32 0 2.64 0 4 0 C3 3 3 3 1.15234375 4.16796875 C0.42144531 4.50441406 -0.30945313 4.84085938 -1.0625 5.1875 C-1.79597656 5.53167969 -2.52945313 5.87585938 -3.28515625 6.23046875 C-4.13400391 6.61138672 -4.13400391 6.61138672 -5 7 C-5 6.34 -5 5.68 -5 5 C-5.66 4.67 -6.32 4.34 -7 4 C-6.030625 3.525625 -5.06125 3.05125 -4.0625 2.5625 C-1.19522563 1.29806053 -1.19522563 1.29806053 0 0 Z " fill="#D3B31F" transform="translate(202,131)"/>
<path d="M0 0 C0.66 0.33 1.32 0.66 2 1 C1.34 1.66 0.68 2.32 0 3 C0.99 3.66 1.98 4.32 3 5 C1.56656 5.53190541 0.12804633 6.05015258 -1.3125 6.5625 C-2.51326172 6.99755859 -2.51326172 6.99755859 -3.73828125 7.44140625 C-6 8 -6 8 -9 7 C-6.62997587 4.38049964 -4.04546021 2.76316117 -1 1 C-0.67 0.67 -0.34 0.34 0 0 Z " fill="#E3BF17" transform="translate(332,49)"/>
<path d="M0 0 C0.33 0 0.66 0 1 0 C1 4.29 1 8.58 1 13 C-2 10 -2 10 -2.36328125 8.02734375 C-2.22222222 2.22222222 -2.22222222 2.22222222 0 0 Z " fill="#EEC612" transform="translate(284,360)"/>
<path d="M0 0 C1.32 0 2.64 0 4 0 C4 1.98 4 3.96 4 6 C2.35 6 0.7 6 -1 6 C-1.042721 4.33388095 -1.04063832 2.66617115 -1 1 C-0.67 0.67 -0.34 0.34 0 0 Z " fill="#A09339" transform="translate(198,341)"/>
<path d="M0 0 C0.66 0 1.32 0 2 0 C1.21681311 3.91593446 -0.39179858 7.36406635 -2 11 C-2.66 11 -3.32 11 -4 11 C-3.125 5.25 -3.125 5.25 -2 3 C-1.34 3 -0.68 3 0 3 C0 2.01 0 1.02 0 0 Z " fill="#F5D33F" transform="translate(312,114)"/>
<path d="M0 0 C0.60546875 1.8359375 0.60546875 1.8359375 1 4 C-1.19434113 7.41341953 -3.20764006 9.51014431 -7 11 C-5.22054913 6.95579349 -2.60470327 3.53921513 0 0 Z " fill="#AC9732" transform="translate(170,342)"/>
<path d="M0 0 C0.33 0 0.66 0 1 0 C1.29915966 8.97478992 1.29915966 8.97478992 -1 12 C-1.99 12.33 -2.98 12.66 -4 13 C-3.52140759 11.39566191 -3.04210442 9.79153584 -2.5625 8.1875 C-2.29566406 7.29417969 -2.02882813 6.40085938 -1.75390625 5.48046875 C-1.19612127 3.64526945 -0.60655425 1.81966274 0 0 Z " fill="#DEC45D" transform="translate(408,148)"/>
<path d="M0 0 C0.33 0 0.66 0 1 0 C1 3.3 1 6.6 1 10 C0.01 10 -0.98 10 -2 10 C-1.85950482 8.52031676 -1.71245174 7.04125484 -1.5625 5.5625 C-1.48128906 4.73878906 -1.40007812 3.91507812 -1.31640625 3.06640625 C-1 1 -1 1 0 0 Z " fill="#747652" transform="translate(398,344)"/>
<path d="M0 0 C0.78375 0.04125 1.5675 0.0825 2.375 0.125 C-0.11452921 2.79235273 -2.25908134 4.68246343 -5.625 6.125 C-4.86443086 2.32215429 -4.27658992 0.20364714 0 0 Z " fill="#D6B620" transform="translate(319.625,57.875)"/>
<path d="M0 0 C0.66 0 1.32 0 2 0 C2.125 6.625 2.125 6.625 1 10 C0.34 10 -0.32 10 -1 10 C-0.67 6.7 -0.34 3.4 0 0 Z " fill="#606E5D" transform="translate(226,350)"/>
<path d="M0 0 C0 3.90838866 -1.50567876 5.11594107 -4 8 C-5.32 7.67 -6.64 7.34 -8 7 C-5.36 4.69 -2.72 2.38 0 0 Z " fill="#B39A2C" transform="translate(388,310)"/>
<path d="M0 0 C-1.8125 2 -1.8125 2 -4 4 C-4.99 4 -5.98 4 -7 4 C-6.625 2.0625 -6.625 2.0625 -6 0 C-3.50907189 -1.24546405 -2.58919267 -0.7767578 0 0 Z " fill="#465B66" transform="translate(180,142)"/>
<path d="M0 0 C-2.31 1.32 -4.62 2.64 -7 4 C-7.33 3.34 -7.66 2.68 -8 2 C-10.02463255 1.34786708 -10.02463255 1.34786708 -12 1 C-10.56496445 0.63597631 -9.12683494 0.28413409 -7.6875 -0.0625 C-6.88699219 -0.25972656 -6.08648437 -0.45695312 -5.26171875 -0.66015625 C-3 -1 -3 -1 0 0 Z " fill="#E5C116" transform="translate(243,96)"/>
<path d="M0 0 C0.33 0.66 0.66 1.32 1 2 C0.67 2.66 0.34 3.32 0 4 C-0.22622081 5.70363822 -0.40888473 7.41328701 -0.5625 9.125 C-0.68818359 10.49011719 -0.68818359 10.49011719 -0.81640625 11.8828125 C-0.87699219 12.58148438 -0.93757813 13.28015625 -1 14 C-1.33 14 -1.66 14 -2 14 C-2.24915939 12.23186888 -2.47366632 10.46025018 -2.6875 8.6875 C-2.81511719 7.70136719 -2.94273437 6.71523438 -3.07421875 5.69921875 C-3 3 -3 3 -1.51953125 1.14453125 C-1.01808594 0.76683594 -0.51664062 0.38914062 0 0 Z " fill="#A89635" transform="translate(304,349)"/>
<path d="M0 0 C0.33 0 0.66 0 1 0 C1 1.98 1 3.96 1 6 C1.99 5.67 2.98 5.34 4 5 C3.67 6.65 3.34 8.3 3 10 C2.01 10 1.02 10 0 10 C0 6.7 0 3.4 0 0 Z " fill="#989041" transform="translate(153,334)"/>
<path d="M0 0 C1 2 1 2 0.25 5.5625 C-0.1625 6.696875 -0.575 7.83125 -1 9 C-1.99 9.33 -2.98 9.66 -4 10 C-3.43454163 6.04179141 -2.19097652 3.3340947 0 0 Z " fill="#B29C31" transform="translate(309,117)"/>
<path d="M0 0 C0.99 0 1.98 0 3 0 C1.66666667 2.66666667 0.33333333 5.33333333 -1 8 C-1.93065133 5.39417629 -2.14917407 4.35801776 -1.0625 1.75 C-0.711875 1.1725 -0.36125 0.595 0 0 Z " fill="#CAAC24" transform="translate(350,343)"/>
<path d="M0 0 C0.33 0 0.66 0 1 0 C1 1.98 1 3.96 1 6 C-0.65 6.33 -2.3 6.66 -4 7 C-2.92598892 4.08482708 -2.22189824 2.22189824 0 0 Z " fill="#B39E32" transform="translate(333,81)"/>
<path d="M0 0 C1.32 0.33 2.64 0.66 4 1 C3.67 2.32 3.34 3.64 3 5 C2.01 5 1.02 5 0 5 C0 3.35 0 1.7 0 0 Z " fill="#E8C215" transform="translate(195,357)"/>
<path d="M0 0 C1.32 0.33 2.64 0.66 4 1 C4.66 3.31 5.32 5.62 6 8 C1.125 3.375 1.125 3.375 0 0 Z " fill="#888044" transform="translate(252,166)"/>
<path d="M0 0 C0.99 0.33 1.98 0.66 3 1 C1.35 3.64 -0.3 6.28 -2 9 C-3 6 -3 6 -1.5625 2.8125 C-1.046875 1.884375 -0.53125 0.95625 0 0 Z " fill="#F4CF2A" transform="translate(319,103)"/>
<path d="M0 0 C-0.3125 2.375 -0.3125 2.375 -1 5 C-1.99 5.66 -2.98 6.32 -4 7 C-3.34 5.35 -2.68 3.7 -2 2 C-3.65 2 -5.3 2 -7 2 C-4.35261084 0.5393715 -3.10551666 0 0 0 Z " fill="#606B59" transform="translate(362,46)"/>
<path d="M0 0 C0.99 0 1.98 0 3 0 C3.99 2.31 4.98 4.62 6 7 C3.00675737 5.9024777 2.15389099 5.32317108 0.75 2.375 C0.5025 1.59125 0.255 0.8075 0 0 Z " fill="#807C47" transform="translate(331,307)"/>
<path d="M0 0 C1.875 0.8125 1.875 0.8125 2.875 2.8125 C-0.41476808 3.90908936 -1.83803767 3.61203138 -5.125 2.8125 C-2.68543956 -0.23695055 -2.68543956 -0.23695055 0 0 Z " fill="#C5AE4A" transform="translate(322.125,55.1875)"/>
</svg>
